ply
format ascii 1.0
comment Created by Blender 2.78 (sub 0) - www.blender.org, source file: 'castle_5.blend'
element vertex 218
property float x
property float y
property float z
property float nx
property float ny
property float nz
element face 66
property list uchar uint vertex_indices
end_header
2.969305 -2.927715 4.863931 0.771301 0.000000 -0.636470
2.969305 2.982613 4.863931 0.771301 0.000000 -0.636470
3.101880 3.111096 5.024590 0.771301 0.000000 -0.636470
3.101880 -3.056197 5.024590 0.771301 0.000000 -0.636470
3.556243 -3.310564 -0.313635 0.993636 0.000000 0.112640
3.556243 3.748311 -0.313635 0.993636 0.000000 0.112640
2.969305 2.982613 4.863931 0.993636 0.000000 0.112640
2.969305 -2.927715 4.863931 0.993636 0.000000 0.112640
-3.727479 3.748311 -0.313635 -0.993392 0.000000 0.114772
-3.727479 -3.310564 -0.313635 -0.993392 0.000000 0.114772
-3.129284 -2.927715 4.863931 -0.993392 0.000000 0.114772
-3.129284 2.982613 4.863931 -0.993392 0.000000 0.114772
3.556243 3.748311 -0.313635 0.000000 0.989241 0.146297
-3.727479 3.748311 -0.313635 0.000000 0.989241 0.146297
-3.129284 2.982613 4.863931 0.000000 0.989241 0.146297
2.969305 2.982613 4.863931 0.000000 0.989241 0.146297
3.101880 3.111096 5.703107 0.000000 -0.000002 1.000000
-3.261859 3.111096 5.703107 0.000000 -0.000002 1.000000
-2.919281 2.726779 5.703106 0.000000 -0.000002 1.000000
2.701548 2.746080 5.703107 0.000003 0.000000 1.000000
2.708820 -2.674854 5.703108 0.000003 0.000000 1.000000
3.101880 -3.056197 5.703107 0.000003 0.000000 1.000000
3.101880 3.111096 5.703107 -0.000000 0.000000 1.000000
-2.919281 2.726779 5.703106 -0.000000 0.000000 1.000000
2.701548 2.746080 5.703107 -0.000000 0.000000 1.000000
3.101880 -3.056197 5.703107 0.000000 0.000000 1.000000
-3.261859 3.111096 5.024590 -0.771301 0.000000 -0.636471
-3.129284 2.982613 4.863931 -0.771301 0.000000 -0.636471
-3.129284 -2.927715 4.863931 -0.771301 0.000000 -0.636471
-3.261859 -3.056197 5.024590 -0.771301 -0.000000 -0.636471
-3.261859 0.055261 5.024590 -0.771301 -0.000000 -0.636471
-3.261859 0.371994 5.024590 -0.771301 -0.000000 -0.636471
2.969305 2.982613 4.863931 0.000000 0.780976 -0.624561
-3.129284 2.982613 4.863931 0.000000 0.780976 -0.624561
-3.261859 3.111096 5.024590 0.000000 0.780976 -0.624561
3.101880 3.111096 5.024590 0.000000 0.780976 -0.624561
-3.261859 -3.056197 5.024590 -0.000000 -0.780976 -0.624561
-3.129284 -2.927715 4.863931 -0.000000 -0.780976 -0.624561
2.969305 -2.927715 4.863931 -0.000000 -0.780976 -0.624561
3.101880 -3.056197 5.024590 0.000000 -0.780976 -0.624561
0.048297 -3.056197 5.024590 0.000000 -0.780976 -0.624561
-0.195643 -3.056197 5.024590 0.000000 -0.780976 -0.624561
-3.261859 -3.056197 5.703107 0.000000 -0.000001 1.000000
-0.209130 -3.056197 5.703107 0.000000 -0.000001 1.000000
-0.161802 -2.660214 5.703108 0.000000 -0.000001 1.000000
-2.886057 -2.646610 5.703108 0.000001 0.000000 1.000000
-2.902938 0.083577 5.703107 0.000001 0.000000 1.000000
-3.261859 0.060878 5.703107 0.000001 0.000000 1.000000
-2.886057 -2.646610 5.703108 -0.000000 -0.000001 1.000000
-3.261859 -3.056197 5.703107 -0.000001 0.000000 1.000000
-2.886057 -2.646610 5.703108 -0.000001 0.000000 1.000000
-3.261859 0.060878 5.703107 -0.000001 0.000000 1.000000
-3.261859 -3.056197 5.024590 0.000000 -1.000000 -0.000000
-0.195643 -3.056197 5.024590 0.000000 -1.000000 -0.000000
-0.209130 -3.056197 5.703107 0.000000 -1.000000 -0.000000
-3.261859 -3.056197 5.703107 0.000000 -1.000000 -0.000000
3.101880 -3.056197 5.024590 1.000000 0.000000 0.000000
3.101880 3.111096 5.024590 1.000000 0.000000 0.000000
3.101880 3.111096 5.703107 1.000000 0.000000 0.000000
3.101880 -3.056197 5.703107 1.000000 0.000000 0.000000
-3.261859 3.111096 5.024590 -1.000000 0.000000 -0.000000
-3.261859 0.371994 5.024590 -1.000000 0.000000 -0.000000
-3.261859 0.346777 5.703107 -1.000000 0.000000 -0.000000
-3.261859 3.111096 5.703107 -1.000000 0.000000 -0.000000
2.052435 -1.980325 5.063526 0.000003 0.000000 1.000000
2.708820 -2.674855 5.063524 0.000003 0.000000 1.000000
2.701548 2.746080 5.063523 0.000003 0.000000 1.000000
2.701548 2.746080 5.063523 -0.000000 -0.000003 1.000000
-2.919281 2.726779 5.063522 -0.000000 -0.000003 1.000000
-2.211588 2.038619 5.063520 -0.000000 -0.000003 1.000000
2.032182 2.026144 5.063522 -0.000002 0.000001 1.000000
2.052435 -1.980325 5.063526 -0.000002 0.000001 1.000000
2.701548 2.746080 5.063523 -0.000002 0.000001 1.000000
2.701548 2.746080 5.063523 -0.000001 -0.000000 1.000000
-2.211588 2.038619 5.063520 -0.000001 -0.000000 1.000000
2.032182 2.026144 5.063522 -0.000001 -0.000000 1.000000
-2.886057 -2.646610 5.703108 0.005011 0.999987 -0.000072
-0.161802 -2.660214 5.703108 0.005011 0.999987 -0.000072
-0.132001 -2.660456 5.063523 0.005011 0.999987 -0.000072
-2.886057 -2.646610 5.063523 0.005011 0.999987 -0.000072
2.708820 -2.674854 5.703108 -0.999999 -0.001342 -0.000000
2.701548 2.746080 5.703107 -0.999999 -0.001342 -0.000000
2.701548 2.746080 5.063523 -0.999999 -0.001342 -0.000000
2.708820 -2.674855 5.063524 -0.999999 -0.001342 -0.000000
-2.919281 2.726779 5.703106 0.999981 0.006183 -0.000000
-2.904360 0.313595 5.703107 0.999981 0.006183 -0.000000
-2.904358 0.313239 5.063522 0.999981 0.006183 -0.000000
-2.919281 2.726779 5.063522 0.999981 0.006183 -0.000000
2.032180 2.026146 6.289791 0.000319 0.108399 -0.994107
-2.211590 2.038621 6.289788 0.000319 0.108399 -0.994107
-2.912736 2.691712 6.360778 0.000319 0.108399 -0.994107
2.717713 2.675160 6.360780 0.000319 0.108399 -0.994107
-2.211588 2.038619 5.063520 -0.999861 -0.016675 -0.000001
-2.145012 -1.953378 5.063522 -0.999861 -0.016675 -0.000001
-2.145014 -1.953377 6.289790 -0.999861 -0.016675 -0.000001
-2.211590 2.038621 6.289788 -0.999861 -0.016675 -0.000001
-2.145012 -1.953378 5.063522 0.000003 0.000001 1.000000
-2.211588 2.038619 5.063520 0.000003 0.000001 1.000000
-2.919281 2.726779 5.063522 0.000003 0.000001 1.000000
-2.904358 0.313239 5.063522 -0.449166 -0.002777 0.893444
-2.902858 0.070708 5.063522 -0.449166 -0.002777 0.893444
-2.886057 -2.646610 5.063523 -0.449166 -0.002777 0.893444
-2.145012 -1.953378 5.063522 0.000001 0.000000 1.000000
-2.919281 2.726779 5.063522 0.000001 0.000000 1.000000
-2.904358 0.313239 5.063522 0.000001 0.000000 1.000000
2.708820 -2.674855 5.063524 -0.000001 -0.000004 1.000000
2.052435 -1.980325 5.063526 -0.000001 -0.000004 1.000000
-2.145012 -1.953378 5.063522 -0.000001 -0.000004 1.000000
-0.132001 -2.660456 5.063523 -0.000000 -0.000055 1.000000
0.002804 -2.661548 5.063523 -0.000000 -0.000055 1.000000
2.708820 -2.674855 5.063524 -0.000000 -0.000055 1.000000
-2.145012 -1.953378 5.063522 0.000002 0.000000 1.000000
-2.904358 0.313239 5.063522 0.000002 0.000000 1.000000
-2.886057 -2.646610 5.063523 0.000002 0.000000 1.000000
-0.132001 -2.660456 5.063523 -0.000000 0.000002 1.000000
2.708820 -2.674855 5.063524 -0.000000 0.000002 1.000000
-2.145012 -1.953378 5.063522 -0.000000 0.000002 1.000000
-2.886057 -2.646610 5.063523 0.000000 0.000002 1.000000
2.052435 -1.980325 5.063526 0.999987 0.005055 0.000001
2.032182 2.026144 5.063522 0.999987 0.005055 0.000001
2.032180 2.026146 6.289791 0.999987 0.005055 0.000001
2.052434 -1.980324 6.289794 0.999987 0.005055 0.000001
2.052434 -1.980324 6.289794 -0.006420 -0.999979 0.000001
-2.145014 -1.953377 6.289790 -0.006420 -0.999979 0.000001
-2.145012 -1.953378 5.063522 -0.006420 -0.999979 0.000001
2.052435 -1.980325 5.063526 -0.006420 -0.999979 0.000001
2.032182 2.026144 5.063522 0.002940 0.999996 -0.000001
-2.211588 2.038619 5.063520 0.002940 0.999996 -0.000001
-2.211590 2.038621 6.289788 0.002940 0.999996 -0.000001
2.032180 2.026146 6.289791 0.002940 0.999996 -0.000001
-2.145014 -1.953377 6.289790 -0.000690 -0.107640 -0.994190
2.052434 -1.980324 6.289794 -0.000690 -0.107640 -0.994190
2.744585 -2.640449 6.360785 -0.000690 -0.107640 -0.994190
-2.824406 -2.604696 6.360780 -0.000690 -0.107640 -0.994190
2.052434 -1.980324 6.289794 0.102518 0.000517 -0.994731
2.032180 2.026146 6.289791 0.102518 0.000517 -0.994731
2.717713 2.675160 6.360780 0.102518 0.000517 -0.994731
2.744585 -2.640449 6.360785 0.102518 0.000517 -0.994731
-2.211590 2.038621 6.289788 -0.102306 -0.001707 -0.994752
-2.145014 -1.953377 6.289790 -0.102306 -0.001707 -0.994752
-2.824406 -2.604696 6.360780 -0.102306 -0.001707 -0.994752
-2.912736 2.691712 6.360778 -0.102306 -0.001707 -0.994752
3.101880 3.111096 5.024590 0.000000 1.000000 0.000000
-3.261859 3.111096 5.024590 0.000000 1.000000 0.000000
-3.261859 3.111096 5.703107 0.000000 1.000000 0.000000
3.101880 3.111096 5.703107 0.000000 1.000000 0.000000
2.701548 2.746080 5.063523 0.003434 -0.999994 0.000000
2.701548 2.746080 5.703107 0.003434 -0.999994 0.000000
-2.919281 2.726779 5.703106 0.003434 -0.999994 0.000000
-2.919281 2.726779 5.063522 0.003434 -0.999994 0.000000
0.002804 -2.661548 5.063523 0.004975 0.999988 -0.000244
-0.018984 -2.661128 5.703108 0.004975 0.999988 -0.000244
2.708820 -2.674854 5.703108 0.004975 0.999988 -0.000244
2.708820 -2.674855 5.063524 0.004975 0.999988 -0.000244
-0.209130 -3.056197 5.703107 0.989574 -0.140301 0.032525
-0.195643 -3.056197 5.024590 0.989574 -0.140301 0.032525
-0.132001 -2.660456 5.063523 0.989574 -0.140301 0.032525
-0.161802 -2.660214 5.703108 0.989574 -0.140301 0.032525
0.048297 -3.056197 5.024590 -0.000283 -0.098034 0.995183
0.002804 -2.661548 5.063523 -0.000283 -0.098034 0.995183
-0.132001 -2.660456 5.063523 -0.000283 -0.098034 0.995183
-0.195643 -3.056197 5.024590 -0.000283 -0.098034 0.995183
-0.018984 -2.661128 5.703108 -0.000000 -0.000002 1.000000
0.028152 -3.056197 5.703107 -0.000000 -0.000002 1.000000
3.101880 -3.056197 5.703107 -0.000000 -0.000002 1.000000
2.708820 -2.674854 5.703108 -0.000000 -0.000002 1.000000
0.028152 -3.056197 5.703107 -0.000000 -1.000000 0.000000
0.048297 -3.056197 5.024590 -0.000000 -1.000000 0.000000
3.101880 -3.056197 5.024590 -0.000000 -1.000000 0.000000
3.101880 -3.056197 5.703107 -0.000000 -1.000000 0.000000
0.048297 -3.056197 5.024590 -0.992876 -0.114903 -0.031550
0.028152 -3.056197 5.703107 -0.992876 -0.114903 -0.031550
-0.018984 -2.661128 5.703108 -0.992876 -0.114903 -0.031550
0.002804 -2.661548 5.063523 -0.992876 -0.114903 -0.031550
-3.727479 -3.310564 -0.313635 0.000000 -0.997277 0.073743
3.556243 -3.310564 -0.313635 0.000000 -0.997277 0.073743
2.969305 -2.927715 4.863931 0.000000 -0.997277 0.073743
-3.129284 -2.927715 4.863931 0.000000 -0.997277 0.073743
-2.902858 0.070708 5.063522 0.999981 0.006183 0.000000
-2.902938 0.083577 5.703107 0.999981 0.006183 0.000000
-2.886057 -2.646610 5.703108 0.999981 0.006183 0.000000
-2.886057 -2.646610 5.063523 0.999981 0.006183 0.000000
-3.261859 0.055261 5.024590 -0.108053 -0.000290 0.994145
-2.902858 0.070708 5.063522 -0.108053 -0.000290 0.994145
-2.904358 0.313239 5.063522 -0.108053 -0.000290 0.994145
-3.261859 0.371994 5.024590 -0.108053 -0.000290 0.994145
-3.261859 0.346777 5.703107 0.000002 0.000000 1.000000
-2.904360 0.313595 5.703107 0.000002 0.000000 1.000000
-2.919281 2.726779 5.703106 0.000002 0.000000 1.000000
-3.261859 3.111096 5.703107 0.000002 0.000000 1.000000
-3.261859 0.060878 5.703107 -1.000000 0.000000 0.000000
-3.261859 0.055261 5.024590 -1.000000 0.000000 0.000000
-3.261859 -3.056197 5.024590 -1.000000 0.000000 0.000000
-3.261859 -3.056197 5.703107 -1.000000 0.000000 0.000000
-3.261859 0.371994 5.024590 -0.126509 -0.991789 -0.018707
-2.904358 0.313239 5.063522 -0.126509 -0.991789 -0.018707
-2.904360 0.313595 5.703107 -0.126509 -0.991789 -0.018707
-3.261859 0.346777 5.703107 -0.126509 -0.991789 -0.018707
-3.261859 0.055261 5.024590 -0.052296 0.998533 -0.014007
-3.261859 0.060878 5.703107 -0.052296 0.998533 -0.014007
-2.902938 0.083577 5.703107 -0.052296 0.998533 -0.014007
-2.902858 0.070708 5.063522 -0.052296 0.998533 -0.014007
-2.912736 2.691712 6.360778 -0.634778 -0.013380 0.772579
-2.824406 -2.604696 6.360780 -0.634778 -0.013380 0.772579
-0.057132 0.034051 8.661016 -0.634778 -0.013380 0.772579
-0.080293 0.026815 8.661016 -0.634778 -0.013380 0.772579
2.744585 -2.640449 6.360785 0.634798 0.000443 0.772678
2.717713 2.675160 6.360780 0.634798 0.000443 0.772678
-0.057132 0.034051 8.661016 0.634798 0.000443 0.772678
-0.080293 0.026815 8.661016 0.634798 0.000443 0.772678
-2.824406 -2.604696 6.360780 -0.005079 -0.655110 0.755516
2.744585 -2.640449 6.360785 -0.005079 -0.655110 0.755516
-0.080293 0.026815 8.661016 -0.005079 -0.655110 0.755516
-0.057132 0.034051 8.661016 -0.005079 -0.655110 0.755516
2.717713 2.675160 6.360780 0.001079 0.655094 0.755547
-2.912736 2.691712 6.360778 0.001079 0.655094 0.755547
-0.080293 0.026815 8.661016 0.001079 0.655094 0.755547
-0.057132 0.034051 8.661016 0.001079 0.655094 0.755547
4 0 1 2 3
4 4 5 6 7
4 8 9 10 11
4 12 13 14 15
3 16 17 18
3 19 20 21
3 22 23 24
3 24 25 22
3 26 27 28
3 28 29 30
3 31 26 28
3 28 30 31
4 32 33 34 35
3 36 37 38
3 38 39 40
3 41 36 38
3 38 40 41
3 42 43 44
3 45 46 47
3 42 44 48
3 49 50 51
4 52 53 54 55
4 56 57 58 59
4 60 61 62 63
3 64 65 66
3 67 68 69
3 70 71 72
3 73 74 75
4 76 77 78 79
4 80 81 82 83
4 84 85 86 87
4 88 89 90 91
4 92 93 94 95
3 96 97 98
3 99 100 101
3 102 103 104
3 105 106 107
3 108 109 110
3 111 112 113
3 114 115 116
3 116 117 114
4 118 119 120 121
4 122 123 124 125
4 126 127 128 129
4 130 131 132 133
4 134 135 136 137
4 138 139 140 141
4 142 143 144 145
4 146 147 148 149
4 150 151 152 153
4 154 155 156 157
4 158 159 160 161
4 162 163 164 165
4 166 167 168 169
4 170 171 172 173
4 174 175 176 177
4 178 179 180 181
4 182 183 184 185
4 186 187 188 189
4 190 191 192 193
4 194 195 196 197
4 198 199 200 201
4 202 203 204 205
4 206 207 208 209
4 210 211 212 213
4 214 215 216 217
